<svg xmlns="http://www.w3.org/2000/svg" viewBox="0 0 713.79 170.66">
  <defs>
    <style>
      .cls-1{fill:#ee243e}.cls-3{fill:#2b2d42}
    </style>
  </defs>
  <g id="Layer" data-name="Layer">
    <path d="M120 13.88V8a8 8 0 0 1 11.8-7 90.44 90.44 0 0 1 37.92 37.91 8 8 0 0 1-7.05 11.8h-5.89a16 16 0 0 1-13.23-6.82 65.38 65.38 0 0 0-16.73-16.73A16 16 0 0 1 120 13.88Z" class="cls-1"/>
    <path fill="#8d99ad" d="M110 161.56v.22a8 8 0 0 1-6.77 7.91 90.71 90.71 0 0 1-26.46 0 8 8 0 0 1-6.77-7.91v-.22a16 16 0 0 1 16.76-16c1.07.06 2.15.08 3.24.08s2.17 0 3.24-.08a16 16 0 0 1 16.76 16Z"/>
    <path d="M60 147.44v5.9a8 8 0 0 1-11.8 7 90.41 90.41 0 0 1-37.92-37.92 8 8 0 0 1 7-11.8h5.89a16 16 0 0 1 13.23 6.83 65.18 65.18 0 0 0 16.73 16.72A16 16 0 0 1 60 147.44Z" class="cls-1"/>
    <path d="M155 80.66c0-1.08 0-2.16-.08-3.24a16 16 0 0 1 16-16.76h.23a8 8 0 0 1 7.85 6.77 90.1 90.1 0 0 1-47.32 93 8 8 0 0 1-11.71-7.1v-6a15.8 15.8 0 0 1 6.77-13.07A64.91 64.91 0 0 0 155 80.66ZM25 81c0 1.08 0 2.16.08 3.24A16 16 0 0 1 9.11 101h-.23A8 8 0 0 1 1 94.24a90.1 90.1 0 0 1 47.32-93A8 8 0 0 1 60 8.34v6a15.82 15.82 0 0 1-6.77 13.07A64.91 64.91 0 0 0 25 81ZM328.35 148a27.61 27.61 0 0 1-10.16-1.68c-2.82-1.12-4.24-3.33-4.24-6.64V86.36q0-5.11-2.8-7.92a10.06 10.06 0 0 0-7.44-2.8 15.18 15.18 0 0 0-5.2 1 13.93 13.93 0 0 0-4.72 2.88 4.84 4.84 0 0 1 .16 1.2v49q0 4.65 1.92 6.64c1.28 1.34 3.31 2 6.08 2a10.63 10.63 0 0 1-1 4.72 14 14 0 0 1-2.8 3.92H264a16.65 16.65 0 0 1-2.64-3.92 10.77 10.77 0 0 1-1-4.72c2.78 0 4.72-.66 5.84-2s1.68-3.54 1.68-6.64V86.36c0-3.41-1-6-3-7.92a10 10 0 0 0-7.12-2.8 15.2 15.2 0 0 0-6.24 1.44 15 15 0 0 0-5.44 4.16v48.48q0 4.65 1.68 6.64c1.12 1.34 3 2 5.68 2a11.58 11.58 0 0 1-3.84 8.64h-34.69a14.44 14.44 0 0 1-2.8-3.92 10.77 10.77 0 0 1-1-4.72c3.2 0 5.5-.66 6.88-2s2.08-3.54 2.08-6.64V82.84q0-4.16-2.32-6.08t-8.4-1.92v-7a42.84 42.84 0 0 1 9.36-4 107.72 107.72 0 0 1 11-2.8A47.15 47.15 0 0 1 238 60a7.59 7.59 0 0 1 5.36 2c1.44 1.34 2.38 4.08 2.8 8.24a30.53 30.53 0 0 1 10.48-7.44 35.15 35.15 0 0 1 14.27-2.8q16 0 20.8 10.72a27.43 27.43 0 0 1 10.8-7.92 37.87 37.87 0 0 1 14.8-2.8q11.52 0 17.2 5.6t5.68 16.32v47.84a7.26 7.26 0 0 0 2.08 5.6A12.11 12.11 0 0 0 348 138v4.64a19.14 19.14 0 0 1-7.52 3.92 44.26 44.26 0 0 1-12.13 1.44Z" class="cls-3"/>
    <path fill="#ee243f" d="M394.91 148.44q-17.91 0-28.56-11.36t-10.64-31.68q0-13.92 5.28-24.08a38.42 38.42 0 0 1 14.32-15.6 39.16 39.16 0 0 1 20.56-5.44q14.4 0 23.12 8.4t8.72 23.6a26.17 26.17 0 0 1-2 10.64q-2 4.56-8.24 4.56h-34.56q.48 12.64 5.84 17.92t14 5.28a29.37 29.37 0 0 0 10.08-1.68 32.19 32.19 0 0 0 8.64-4.72 8.88 8.88 0 0 1 2.32 3.92 14.39 14.39 0 0 1 .88 4.4q0 2.57-3.6 6.32a31.12 31.12 0 0 1-10.24 6.64 39.83 39.83 0 0 1-15.92 2.88Zm-12-53.12h16.16c1.82 0 3-.69 3.44-2.08a15.75 15.75 0 0 0 .72-5.12q0-10.23-2.48-13.52a7.22 7.22 0 0 0-5.84-3.28 9 9 0 0 0-5.44 2.08q-2.72 2.09-4.48 7.28t-2.08 14.64Z"/>
    <path d="M440.19 147a14.87 14.87 0 0 1-2.8-3.84 10.24 10.24 0 0 1-1-4.64c3.2 0 5.5-.69 6.88-2.08s2.08-3.62 2.08-6.72V83q0-4.16-2.32-6.08T434.59 75v-7.2A49.5 49.5 0 0 1 444 64a107.72 107.72 0 0 1 11-2.8 47.15 47.15 0 0 1 8.24-1 7.66 7.66 0 0 1 5.52 2.08q2.16 2.08 2.48 9a30 30 0 0 1 10.16-8 32.08 32.08 0 0 1 14.32-3q11.21 0 16.88 5.68t5.68 19.28v43.68q0 7.85 7.68 9.28l.16 4.64a13.21 13.21 0 0 1-5.12 2.8 44.48 44.48 0 0 1-7.6 1.84 48.78 48.78 0 0 1-7.6.64q-6.87 0-10.16-2.56c-2.18-1.7-3.28-4.42-3.28-8.16V87.32q0-6.55-2.88-9.12a10.24 10.24 0 0 0-7-2.56 13.94 13.94 0 0 0-11 5.28v48.8q0 4.65 2 6.72c1.34 1.39 3.6 2.08 6.8 2.08a11.62 11.62 0 0 1-3.68 8.48ZM564.51 148.12a30.16 30.16 0 0 1-12.32-2.48 19.39 19.39 0 0 1-9-8.56q-3.43-6.08-3.44-16.64v-44h-10.12v-9.76q4.32-.63 8.16-5.44a45.82 45.82 0 0 0 6.64-11.84A54.35 54.35 0 0 0 548 35.32a32.32 32.32 0 0 1 5.28-.48q6.41 0 8.88 3.68a12.48 12.48 0 0 1 2.48 6.88v16.8h18.56a70.83 70.83 0 0 1-.4 7.6 15.55 15.55 0 0 1-2.16 6.64H565v45.12c0 3.42.7 5.68 2.08 6.8a8.15 8.15 0 0 0 5.28 1.68 14.09 14.09 0 0 0 6.48-1.68 16.71 16.71 0 0 0 5.2-3.92 7.34 7.34 0 0 1 2.4 4.24 20.64 20.64 0 0 1 .64 4.24 12.41 12.41 0 0 1-2.4 7 17.54 17.54 0 0 1-7.44 5.84 30.41 30.41 0 0 1-12.73 2.36ZM595.88 147a15.42 15.42 0 0 1-2.72-4 10.91 10.91 0 0 1-1-4.64c3.09 0 5.33-.66 6.72-2s2.08-3.6 2.08-6.8v-85a8.1 8.1 0 0 0-2.08-5.84q-2.08-2.16-8.8-2.16V30.2a49.27 49.27 0 0 1 9.36-3.92 102 102 0 0 1 10.64-2.72 47.35 47.35 0 0 1 8.8-1c2.45 0 4.24.54 5.36 1.6s1.68 2.94 1.68 5.6v99.84c0 3.31.66 5.6 2 6.88s3.6 1.92 6.8 1.92a10.24 10.24 0 0 1-1 4.64 17.8 17.8 0 0 1-2.8 4ZM681 148.44q-17.93 0-28.56-11.36t-10.65-31.68q0-13.92 5.29-24.08a38.36 38.36 0 0 1 14.32-15.6 39.14 39.14 0 0 1 20.6-5.44q14.4 0 23.12 8.4t8.71 23.6a26.17 26.17 0 0 1-2 10.64q-2 4.56-8.23 4.56H669q.48 12.64 5.83 17.92t14 5.28a29.47 29.47 0 0 0 10.09-1.68 32.5 32.5 0 0 0 8.64-4.72 8.87 8.87 0 0 1 2.31 3.92 14.39 14.39 0 0 1 .88 4.4c0 1.71-1.19 3.82-3.59 6.32a31.34 31.34 0 0 1-10.24 6.64 39.9 39.9 0 0 1-15.92 2.88Zm-12-53.12h16.16c1.81 0 3-.69 3.44-2.08a15.75 15.75 0 0 0 .72-5.12q0-10.23-2.49-13.52a7.2 7.2 0 0 0-5.83-3.28 9 9 0 0 0-5.44 2.08q-2.73 2.09-4.48 7.28T669 95.32Z" class="cls-3"/>
  </g>
</svg>
