<svg xmlns="http://www.w3.org/2000/svg" viewBox="0 0 180 170.66">
  <defs>
    <style>
      .cls-1{fill:#ee243e}.cls-3{fill:#2b2d42}
    </style>
  </defs>
  <g id="Layer" data-name="Layer">
    <path d="M120 13.88V8a8 8 0 0 1 11.8-7 90.44 90.44 0 0 1 37.92 37.91 8 8 0 0 1-7.05 11.8h-5.89a16 16 0 0 1-13.23-6.82 65.38 65.38 0 0 0-16.73-16.73A16 16 0 0 1 120 13.88Z" class="cls-1"/>
    <path fill="#8d99ad" d="M110 161.56v.22a8 8 0 0 1-6.77 7.91 90.71 90.71 0 0 1-26.46 0 8 8 0 0 1-6.77-7.91v-.22a16 16 0 0 1 16.76-16c1.07.06 2.15.08 3.24.08s2.17 0 3.24-.08a16 16 0 0 1 16.76 16Z"/>
    <path d="M60 147.44v5.9a8 8 0 0 1-11.8 7 90.41 90.41 0 0 1-37.92-37.92 8 8 0 0 1 7-11.8h5.89a16 16 0 0 1 13.23 6.83 65.18 65.18 0 0 0 16.73 16.72A16 16 0 0 1 60 147.44Z" class="cls-1"/>
    <path d="M155 80.66c0-1.08 0-2.16-.08-3.24a16 16 0 0 1 16-16.76h.23a8 8 0 0 1 7.85 6.77 90.1 90.1 0 0 1-47.32 93 8 8 0 0 1-11.71-7.1v-6a15.8 15.8 0 0 1 6.77-13.07A64.91 64.91 0 0 0 155 80.66ZM25 81c0 1.08 0 2.16.08 3.24A16 16 0 0 1 9.11 101h-.23A8 8 0 0 1 1 94.24a90.1 90.1 0 0 1 47.32-93A8 8 0 0 1 60 8.34v6a15.82 15.82 0 0 1-6.77 13.07A64.91 64.91 0 0 0 25 81Z" class="cls-3"/>
  </g>
</svg>
