<svg xmlns="http://www.w3.org/2000/svg" viewBox="0 0 180 172.28"><defs><style>.cls-1{fill:#2b2d42;}.cls-2{fill:#8d99ad;}.cls-3{fill:#ee243d;}</style></defs><g id="Layer_2" data-name="Layer 2"><g id="Layer_1-2" data-name="Layer 1"><path class="cls-1" d="M174.76,52a6,6,0,0,0-9.87-2.16l-13.8,13.81a7.89,7.89,0,0,0-2.21,7.09A60,60,0,0,1,112,138.09a8,8,0,0,0-2.6,13.12L121,162.79a6,6,0,0,0,6.73,1.22,90.1,90.1,0,0,0,47-112Z"/><path class="cls-2" d="M57.54,157.17a6,6,0,0,0,2.29,9.92,90.38,90.38,0,0,0,42.07,4.4,6,6,0,0,0,3.47-10.2L88.29,144.21a8,8,0,0,0-4.77-2.29c-1.72-.18-3.43-.44-5.1-.77a7.89,7.89,0,0,0-7.08,2.22Z"/><path class="cls-3" d="M28.53,115.46,17.28,126.71a6,6,0,0,0-.6,7.79,91.08,91.08,0,0,0,21.1,21.1,6,6,0,0,0,7.79-.6l11.24-11.25a8,8,0,0,0-1.14-12.26,60.28,60.28,0,0,1-14.88-14.88A8,8,0,0,0,28.53,115.46Z"/><path class="cls-3" d="M151.47,49.09l11.25-11.24a6,6,0,0,0,.6-7.79A91.08,91.08,0,0,0,142.22,9a6,6,0,0,0-7.79.6L123.19,20.81a8,8,0,0,0,1.14,12.25A60.32,60.32,0,0,1,139.21,48,8,8,0,0,0,151.47,49.09Z"/><path class="cls-1" d="M70.56,13.34,59,1.77A6,6,0,0,0,52.26.54a90.11,90.11,0,0,0-47,112.05,6,6,0,0,0,9.87,2.15l13.8-13.8a7.91,7.91,0,0,0,2.21-7.1A60,60,0,0,1,68,26.46,8,8,0,0,0,70.56,13.34Z"/></g></g></svg>